# xmcd
#
# Track frame offsets:
#	150
#	21827
#	34244
#	48767
#	59039
#	71319
#	83592
#	94275
#	105695
#	116788
#	134270
#	148080
#	160368
#	173471
#	185834
#	198731
#	212495
#	223917
#	236301
#	248453
#
# Disc length: 3511 seconds
#
# Revision: 1
# Processed by: cddbd v1.5.2PL0 Copyright (c) Steve Scherf et al.
# Submitted via: audiograbber 1.82.02
#
DISCID=220db514
DTITLE=Australian Bush BA Tribute Vol 1-5 - Tribute Series No 4
DYEAR=2004
DGENRE=Country
TTITLE0=Tex Morton - Fierball Dan
TTITLE1=Les Wilson - Silver Wings
TTITLE2=Tommy Mack - White Lace Red
TTITLE3=Mick Finn - Bernborough
TTITLE4=Tim McNamara - Down By The Railroad Track
TTITLE5=Kid Mahoney - Outlaw Bumble Bee
TTITLE6=Bob Dyer - Way Far Down In The Hollow
TTITLE7=Smilin' Billy Blinkhorn - Poor Ned Kelly
TTITLE8=Glen Davis - The Last Train To Heaven
TTITLE9=Col Johnstone - Contented and Free
TTITLE10=Tex Morton - Don't Make Me Go To Bed
TTITLE11=Les Wilson - Lost Cowboy
TTITLE12=Tommy Mack - Please Don't Pass Me By
TTITLE13=Mick Finn - A Room Full Of Old Gold Records
TTITLE14=Tim McNamara - Pay Day
TTITLE15=Kid Mahoney - My Little Brown Eyed Son
TTITLE16=Bob Dyer - The Newtons Are Feuding Again
TTITLE17=Smilin' Billy Blinkhorn - Sweetheart Yodel
TTITLE18=Glen Davis - Pretty Little Dear
TTITLE19=Col Johnstone - The Way It Was
EXTD=
EXTT0=
EXTT1=
EXTT2=
EXTT3=
EXTT4=
EXTT5=
EXTT6=
EXTT7=
EXTT8=
EXTT9=
EXTT10=
EXTT11=
EXTT12=
EXTT13=
EXTT14=
EXTT15=
EXTT16=
EXTT17=
EXTT18=
EXTT19=
PLAYORDER=
